<svg width="530" height="347" viewBox="0 0 530 347" fill="none" xmlns="http://www.w3.org/2000/svg">
<rect x="0.5" y="0.5" width="529" height="345.096" rx="11.5" fill="#212121" stroke="white"/>
<circle cx="151.976" cy="162.193" r="48.1386" fill="#212121" stroke="white" stroke-width="11"/>
<circle cx="392.073" cy="162.192" r="81.8012" fill="#212121" stroke="white" stroke-width="41"/>
<circle cx="392.072" cy="162.193" r="26.7108" fill="#212121" stroke="white" stroke-width="10"/>
<circle cx="151.976" cy="162.193" r="26.7108" fill="#212121" stroke="white" stroke-width="10"/>
<circle cx="392.072" cy="162.193" r="15.2169" fill="#212121" stroke="white" stroke-width="10" stroke-dasharray="20 20"/>
<circle cx="151.977" cy="162.193" r="15.2169" fill="#212121" stroke="white" stroke-width="10" stroke-dasharray="20 20"/>
<mask id="path-8-inside-1_250_488" fill="white">
<path fill-rule="evenodd" clip-rule="evenodd" d="M30 63C23.3726 63 18 68.3726 18 75V224C18 230.627 23.3726 236 30 236H495C501.627 236 507 230.627 507 224V75C507 68.3726 501.627 63 495 63H30ZM79.6861 134.097C73.0587 134.097 67.6861 139.47 67.6861 146.097V177.013C67.6861 183.64 73.0587 189.013 79.6862 189.013H451.59C458.217 189.013 463.59 183.64 463.59 177.013V146.097C463.59 139.47 458.217 134.097 451.59 134.097H79.6861Z"/>
</mask>
<path fill-rule="evenodd" clip-rule="evenodd" d="M30 63C23.3726 63 18 68.3726 18 75V224C18 230.627 23.3726 236 30 236H495C501.627 236 507 230.627 507 224V75C507 68.3726 501.627 63 495 63H30ZM79.6861 134.097C73.0587 134.097 67.6861 139.47 67.6861 146.097V177.013C67.6861 183.64 73.0587 189.013 79.6862 189.013H451.59C458.217 189.013 463.59 183.64 463.59 177.013V146.097C463.59 139.47 458.217 134.097 451.59 134.097H79.6861Z" fill="#212121"/>
<path d="M19 75C19 68.9249 23.9249 64 30 64V62C22.8203 62 17 67.8203 17 75H19ZM19 224V75H17V224H19ZM30 235C23.9249 235 19 230.075 19 224H17C17 231.18 22.8203 237 30 237V235ZM495 235H30V237H495V235ZM506 224C506 230.075 501.075 235 495 235V237C502.18 237 508 231.18 508 224H506ZM506 75V224H508V75H506ZM495 64C501.075 64 506 68.9249 506 75H508C508 67.8203 502.18 62 495 62V64ZM30 64H495V62H30V64ZM68.6861 146.097C68.6861 140.022 73.611 135.097 79.6861 135.097V133.097C72.5064 133.097 66.6861 138.917 66.6861 146.097H68.6861ZM68.6861 177.013V146.097H66.6861V177.013H68.6861ZM79.6862 188.013C73.611 188.013 68.6861 183.088 68.6861 177.013H66.6861C66.6861 184.193 72.5065 190.013 79.6862 190.013V188.013ZM451.59 188.013H79.6862V190.013H451.59V188.013ZM462.59 177.013C462.59 183.088 457.665 188.013 451.59 188.013V190.013C458.769 190.013 464.59 184.193 464.59 177.013H462.59ZM462.59 146.097V177.013H464.59V146.097H462.59ZM451.59 135.097C457.665 135.097 462.59 140.022 462.59 146.097H464.59C464.59 138.917 458.769 133.097 451.59 133.097V135.097ZM79.6861 135.097H451.59V133.097H79.6861V135.097Z" fill="white" mask="url(#path-8-inside-1_250_488)"/>
<path d="M110.338 246.982H420.94C427.292 246.982 432.44 252.131 432.44 258.482V345.597H98.8379V258.482C98.8379 252.131 103.987 246.982 110.338 246.982Z" fill="#212121" stroke="white"/>
<path d="M133.326 305.729H397.953C404.304 305.729 409.453 310.877 409.453 317.229V345.596H121.826V317.229C121.826 310.877 126.975 305.729 133.326 305.729Z" fill="#212121" stroke="white"/>
<circle cx="497.903" cy="24.0942" r="8.27" stroke="white"/>
<circle cx="24.0962" cy="24.0962" r="8.27" stroke="white"/>
<circle cx="24.0942" cy="313.999" r="8.27" stroke="white"/>
<circle cx="455.758" cy="313.999" r="8.27" stroke="white"/>
<circle cx="66.2388" cy="313.999" r="8.27" stroke="white"/>
<circle cx="497.903" cy="313.999" r="8.27" stroke="white"/>
</svg>
