<svg width="306" height="239" viewBox="0 0 306 239" fill="none" xmlns="http://www.w3.org/2000/svg">
<g clip-path="url(#clip0_267_755)">
<path d="M262.797 659.015H42.5175C19.114 659.015 0.0664062 639.973 0.0664062 616.578V42.5113C0.0664062 19.1159 19.114 0.0742188 42.5175 0.0742188H262.797C286.2 0.0742188 305.248 19.1159 305.248 42.5113V616.578C305.248 639.973 286.2 659.015 262.797 659.015Z" fill="#212121" stroke="white"/>
<path d="M183.81 60.0589H121.519C113.571 60.0589 107.109 53.599 107.109 45.6545C107.109 37.71 113.571 31.25 121.519 31.25H183.81C191.757 31.25 198.219 37.71 198.219 45.6545C198.219 53.5989 191.757 60.0589 183.81 60.0589Z" stroke="white"/>
<path d="M34.6341 48.2563C32.7005 48.2563 31.2283 47.1138 30.9134 45.3779H32.7957C33.0374 46.1763 33.7405 46.6743 34.6487 46.6743C36.1941 46.6743 37.1097 45.2314 37.1097 42.8145C37.1097 42.8145 37.0584 42.8145 37.0437 42.8145C37.0364 42.8145 37.0071 42.8145 37.0071 42.8145H36.9852C36.4871 43.8179 35.4837 44.3965 34.2459 44.3965C32.2317 44.3965 30.7669 42.917 30.7669 40.8809C30.7669 38.7129 32.3929 37.1675 34.6927 37.1675C36.2381 37.1675 37.4612 37.8999 38.1717 39.2549C38.6624 40.1265 38.9187 41.2544 38.9187 42.5947C38.9187 46.1543 37.3221 48.2563 34.6341 48.2563ZM34.7 42.895C35.9085 42.895 36.7947 42.0308 36.7947 40.8516C36.7947 39.6577 35.8865 38.7422 34.7073 38.7422C33.5281 38.7422 32.6199 39.6431 32.6199 40.8223C32.6199 42.0308 33.4842 42.895 34.7 42.895ZM41.9366 46.8794C41.2481 46.8794 40.7647 46.3813 40.7647 45.7222C40.7647 45.0557 41.2481 44.5649 41.9366 44.5649C42.6324 44.5649 43.1085 45.0557 43.1085 45.7222C43.1085 46.3813 42.6324 46.8794 41.9366 46.8794ZM41.9366 41.3862C41.2481 41.3862 40.7647 40.8955 40.7647 40.2363C40.7647 39.5698 41.2481 39.0791 41.9366 39.0791C42.6324 39.0791 43.1085 39.5698 43.1085 40.2363C43.1085 40.8955 42.6324 41.3862 41.9366 41.3862ZM50.1107 48V46.0298H44.9472V44.3452C45.8993 42.5947 47.3861 40.2437 49.2538 37.4312H51.9198V44.4331H53.348V46.0298H51.9198V48H50.1107ZM46.6977 44.3672V44.4771H50.14V38.9692H50.0375C49.0268 40.4634 47.9281 42.1992 46.6977 44.3672ZM57.3767 48V39.3354H57.2521L54.6228 41.1812V39.3647L57.384 37.4312H59.2663V48H57.3767Z" fill="white"/>
<rect opacity="0.35" x="264.336" y="37.834" width="21" height="10.3333" rx="2.16667" stroke="black"/>
<path opacity="0.4" d="M286.836 41V45C287.641 44.6612 288.164 43.8731 288.164 43C288.164 42.1269 287.641 41.3388 286.836 41" fill="white"/>
<rect x="265.836" y="39.334" width="18" height="7.33333" rx="1.33333" fill="white"/>
<path fill-rule="evenodd" clip-rule="evenodd" d="M251.167 39.6146C253.392 39.6147 255.531 40.4688 257.144 42.0004C257.265 42.1186 257.459 42.1171 257.579 41.997L258.739 40.8267C258.8 40.7658 258.834 40.6833 258.833 40.5974C258.833 40.5116 258.798 40.4295 258.737 40.3693C254.505 36.317 247.829 36.317 243.597 40.3693C243.535 40.4294 243.501 40.5115 243.5 40.5973C243.499 40.6832 243.533 40.7657 243.594 40.8267L244.755 41.997C244.874 42.1173 245.068 42.1188 245.19 42.0004C246.802 40.4687 248.942 39.6145 251.167 39.6146ZM251.165 43.4228C252.387 43.4228 253.566 43.8767 254.472 44.6965C254.595 44.8128 254.788 44.8103 254.907 44.6908L256.067 43.5205C256.128 43.4591 256.161 43.3758 256.161 43.2893C256.16 43.2027 256.124 43.1202 256.062 43.06C253.303 40.4956 249.03 40.4956 246.271 43.06C246.208 43.1202 246.173 43.2028 246.172 43.2893C246.171 43.3759 246.205 43.4592 246.266 43.5205L247.425 44.6908C247.545 44.8103 247.738 44.8128 247.86 44.6965C248.766 43.8772 249.944 43.4233 251.165 43.4228ZM253.488 45.9842C253.49 46.071 253.456 46.1547 253.394 46.2155L251.389 48.2374C251.33 48.2969 251.25 48.3303 251.166 48.3303C251.083 48.3303 251.002 48.2969 250.944 48.2374L248.938 46.2155C248.876 46.1546 248.842 46.0709 248.844 45.9841C248.846 45.8974 248.883 45.8152 248.948 45.757C250.228 44.6747 252.104 44.6747 253.385 45.757C253.449 45.8152 253.487 45.8974 253.488 45.9842Z" fill="white"/>
<path fill-rule="evenodd" clip-rule="evenodd" d="M237.5 37.666H236.5C235.948 37.666 235.5 38.1137 235.5 38.666V47.3327C235.5 47.885 235.948 48.3327 236.5 48.3327H237.5C238.052 48.3327 238.5 47.885 238.5 47.3327V38.666C238.5 38.1137 238.052 37.666 237.5 37.666ZM231.832 40H232.832C233.384 40 233.832 40.4477 233.832 41V47.3333C233.832 47.8856 233.384 48.3333 232.832 48.3333H231.832C231.28 48.3333 230.832 47.8856 230.832 47.3333V41C230.832 40.4477 231.28 40 231.832 40ZM228.168 42.332H227.168C226.616 42.332 226.168 42.7797 226.168 43.332V47.332C226.168 47.8843 226.616 48.332 227.168 48.332H228.168C228.72 48.332 229.168 47.8843 229.168 47.332V43.332C229.168 42.7797 228.72 42.332 228.168 42.332ZM223.5 44.332H222.5C221.948 44.332 221.5 44.7797 221.5 45.332V47.332C221.5 47.8843 221.948 48.332 222.5 48.332H223.5C224.052 48.332 224.5 47.8843 224.5 47.332V45.332C224.5 44.7797 224.052 44.332 223.5 44.332Z" fill="white"/>
</g>
<defs>
<clipPath id="clip0_267_755">
<rect width="306" height="239" fill="white"/>
</clipPath>
</defs>
</svg>
