<svg width="18" height="12" viewBox="0 0 18 12" fill="none" xmlns="http://www.w3.org/2000/svg">
<path fill-rule="evenodd" clip-rule="evenodd" d="M16.5 0.666016H15.5C14.9477 0.666016 14.5 1.11373 14.5 1.66602V10.3327C14.5 10.885 14.9477 11.3327 15.5 11.3327H16.5C17.0523 11.3327 17.5 10.885 17.5 10.3327V1.66602C17.5 1.11373 17.0523 0.666016 16.5 0.666016ZM10.832 3H11.832C12.3843 3 12.832 3.44772 12.832 4V10.3333C12.832 10.8856 12.3843 11.3333 11.832 11.3333H10.832C10.2797 11.3333 9.83203 10.8856 9.83203 10.3333V4C9.83203 3.44772 10.2797 3 10.832 3ZM7.16797 5.33203H6.16797C5.61568 5.33203 5.16797 5.77975 5.16797 6.33203V10.332C5.16797 10.8843 5.61568 11.332 6.16797 11.332H7.16797C7.72025 11.332 8.16797 10.8843 8.16797 10.332V6.33203C8.16797 5.77975 7.72025 5.33203 7.16797 5.33203ZM2.5 7.33301H1.5C0.947715 7.33301 0.5 7.78072 0.5 8.33301V10.333C0.5 10.8853 0.947715 11.333 1.5 11.333H2.5C3.05228 11.333 3.5 10.8853 3.5 10.333V8.33301C3.5 7.78072 3.05228 7.33301 2.5 7.33301Z" fill="white"/>
</svg>
