<svg width="16" height="12" viewBox="0 0 16 12" fill="none" xmlns="http://www.w3.org/2000/svg">
<path fill-rule="evenodd" clip-rule="evenodd" d="M8.16707 2.61456C10.3918 2.61465 12.5315 3.46876 14.1438 5.00036C14.2652 5.1186 14.4593 5.11711 14.5789 4.99701L15.7395 3.82668C15.8 3.76577 15.8338 3.68326 15.8333 3.59741C15.8328 3.51156 15.7981 3.42945 15.7368 3.36925C11.5049 -0.682979 4.82857 -0.682979 0.596657 3.36925C0.535354 3.42941 0.500572 3.51149 0.500007 3.59734C0.499442 3.68319 0.53314 3.76573 0.593645 3.82668L1.75459 4.99701C1.87409 5.11729 2.06831 5.11878 2.18965 5.00036C3.80221 3.46866 5.94212 2.61455 8.16707 2.61456ZM8.16504 6.42185C9.38739 6.42178 10.5661 6.87573 11.4722 7.6955C11.5947 7.81185 11.7878 7.80933 11.9072 7.68982L13.0665 6.51949C13.1276 6.4581 13.1614 6.37483 13.1606 6.28829C13.1597 6.20175 13.1241 6.11918 13.0618 6.05905C10.3027 3.49464 6.02975 3.49464 3.27059 6.05905C3.20827 6.11918 3.17271 6.2018 3.17189 6.28836C3.17107 6.37492 3.20506 6.45819 3.26624 6.51949L4.42518 7.68982C4.54464 7.80933 4.73769 7.81185 4.86024 7.6955C5.76571 6.87627 6.9435 6.42236 8.16504 6.42185ZM10.4884 8.98421C10.4902 9.07099 10.4561 9.15465 10.3941 9.21545L8.38876 11.2374C8.32998 11.2969 8.24983 11.3303 8.16621 11.3303C8.08259 11.3303 8.00244 11.2969 7.94366 11.2374L5.93802 9.21545C5.87607 9.15461 5.84198 9.07092 5.84382 8.98414C5.84566 8.89736 5.88325 8.81519 5.94773 8.75702C7.22839 7.67474 9.10403 7.67474 10.3847 8.75702C10.4491 8.81523 10.4867 8.89743 10.4884 8.98421Z" fill="white"/>
</svg>
